<?xml version="1.0" encoding="UTF-8"?>
<!DOCTYPE svg PUBLIC "-//W3C//DTD SVG 1.1//EN" "http://www.w3.org/Graphics/SVG/1.1/DTD/svg11.dtd">
<svg version="1.1" xmlns="http://www.w3.org/2000/svg" xmlns:xlink="http://www.w3.org/1999/xlink" x="0" y="0" width="390.011" height="73.549" viewBox="0, 0, 390.011, 73.549">
  <g id="Layer_2_with_palm" transform="translate(-224.439, -265.35)">
    <path d="M259.644,265.35 L265.263,265.35 L265.263,302.724 L259.644,302.724 L259.644,265.35 z" fill="#FFFFFF"/>
    <path d="M403.284,265.35 L408.903,265.35 L408.903,302.724 L403.284,302.724 L403.284,265.35 z" fill="#FFFFFF"/>
    <path d="M421.481,287.735 L421.545,305.362 C421.524,308.763 422.891,311.602 424.996,313.972 Q428.544,317.619 433.898,317.619 Q439.064,317.619 442.706,313.942 C445.026,311.596 445.66,309.682 446.278,306.408 L446.278,287.735 L451.497,287.735 L451.497,321.389 L451.574,321.389 C451.635,326.295 449.566,330.345 446.501,333.738 C443.039,337.337 438.615,338.67 433.964,338.874 L433.964,338.9 L426.073,338.9 L426.073,334.088 L433.939,334.088 L433.939,334.072 L433.958,334.073 Q439.125,334.073 442.766,330.395 C445.04,328.097 445.71,326.189 446.317,322.974 L446.278,322.974 L446.278,317.435 C442.856,320.955 438.465,322.221 433.898,322.421 Q426.428,322.421 421.323,317.285 C417.981,314.036 416.435,309.737 416.22,304.936 L416.262,304.936 L416.262,287.735 L421.481,287.735 z" fill="#FFFFFF"/>
    <path d="M244.887,284.049 Q253.383,284.049 259.323,289.501 Q265.263,294.953 265.263,302.585 Q265.263,310.218 259.395,315.638 Q253.527,321.058 244.887,321.058 Q236.247,321.058 230.343,315.638 Q224.439,310.218 224.439,302.585 Q224.439,294.953 230.379,289.501 Q236.319,284.049 244.887,284.049 z M244.887,315.991 Q250.863,315.991 255.075,312.11 Q259.287,308.23 259.287,302.746 Q259.287,297.262 255.003,293.253 Q250.719,289.244 244.851,289.244 Q238.983,289.244 234.735,293.253 Q230.487,297.262 230.487,302.778 Q230.487,308.294 234.591,312.142 Q238.695,315.991 244.887,315.991 z" fill="#FFFFFF"/>
    <path d="M294.063,283.985 Q302.559,283.985 308.499,289.123 Q314.439,294.262 314.439,301.456 Q314.439,308.649 308.571,313.758 Q302.703,318.866 294.063,318.866 Q285.423,318.866 279.519,313.758 Q273.615,308.649 273.615,301.456 Q273.615,294.262 279.555,289.123 Q285.495,283.985 294.063,283.985 z M294.063,314.09 Q300.039,314.09 304.251,310.433 Q308.463,306.775 308.463,301.607 Q308.463,296.438 304.179,292.66 Q299.895,288.882 294.027,288.882 Q288.159,288.882 283.911,292.66 Q279.663,296.438 279.663,301.637 Q279.663,306.836 283.767,310.463 Q287.871,314.09 294.063,314.09 z" fill="#FFFFFF"/>
    <path d="M340.812,284.466 Q349.308,284.466 355.248,289.512 Q361.188,294.557 361.188,301.621 Q361.188,308.685 355.32,313.702 Q349.452,318.718 340.812,318.718 Q332.172,318.718 326.268,313.702 Q320.364,308.685 320.364,301.621 Q320.364,294.557 326.304,289.512 Q332.244,284.466 340.812,284.466 z" fill="#FFFFFF"/>
    <path d="M388.527,284.049 Q397.023,284.049 402.963,289.501 Q408.903,294.953 408.903,302.585 Q408.903,310.218 403.035,315.638 Q397.167,321.058 388.527,321.058 Q379.887,321.058 373.983,315.638 Q368.079,310.218 368.079,302.585 Q368.079,294.953 374.019,289.501 Q379.959,284.049 388.527,284.049 z M388.527,315.991 Q394.503,315.991 398.715,312.11 Q402.927,308.23 402.927,302.746 Q402.927,297.262 398.643,293.253 Q394.359,289.244 388.491,289.244 Q382.623,289.244 378.375,293.253 Q374.127,297.262 374.127,302.778 Q374.127,308.294 378.231,312.142 Q382.335,315.991 388.527,315.991 z" fill="#FFFFFF"/>
    <g>
      <path d="M460.826,317.933 Q460.826,316.731 461.798,315.89 Q462.769,315.049 464.091,315.049 Q465.413,315.049 466.357,315.89 Q467.302,316.731 467.302,317.957 Q467.302,319.183 466.357,320.024 Q465.413,320.865 464.091,320.865 Q462.769,320.865 461.798,320 Q460.826,319.135 460.826,317.933 z" fill="#20497E"/>
      <path d="M481.925,316.154 Q481.925,317.452 482.302,317.693 Q482.68,317.933 484.245,317.933 L486.457,317.933 L486.457,320.721 Q484.191,321.057 482.896,321.057 Q480.468,321.057 479.335,320 Q478.201,318.942 478.201,316.683 L478.201,297.455 L473.129,297.455 L473.129,294.667 L478.201,294.667 L478.201,284.813 L481.925,284.813 L481.925,294.667 L487.752,294.667 L487.752,297.455 L481.925,297.455 z" fill="#20497E"/>
      <path d="M491.853,294.667 L495.631,294.667 L495.631,298.369 Q497.141,296.109 498.571,295.052 Q500.001,293.994 501.755,293.994 Q503.509,293.994 505.289,294.86 L503.347,297.648 Q502.537,297.215 501.674,297.215 Q500.001,297.215 498.517,298.753 Q497.034,300.292 496.332,302.719 Q495.631,305.147 495.631,311.54 L495.631,320.192 L491.853,320.192 z" fill="#20497E"/>
      <path d="M538.043,294.667 L538.043,320.192 L534.428,320.192 L534.428,315.818 Q529.517,321.057 523.204,321.057 Q516.891,321.057 512.547,317.044 Q508.203,313.03 508.203,307.478 Q508.203,301.926 512.574,297.96 Q516.945,293.994 523.042,293.994 Q530.057,293.994 534.428,299.33 L534.428,294.667 z M534.644,307.55 Q534.644,303.176 531.352,300.171 Q528.06,297.167 523.285,297.167 Q518.51,297.167 515.218,300.267 Q511.926,303.368 511.926,307.598 Q511.926,311.828 515.272,314.929 Q518.617,318.029 523.285,318.029 Q527.953,318.029 531.298,315.049 Q534.644,312.069 534.644,307.55 z" fill="#20497E"/>
      <path d="M543.655,294.667 L547.594,294.667 L557.145,314.087 L566.696,294.667 L570.635,294.667 L557.523,321.057 L556.875,321.057 z" fill="#20497E"/>
      <path d="M600.367,311.924 L603.496,313.366 Q598.856,321.057 589.791,321.057 Q583.315,321.057 579.107,317.092 Q574.898,313.126 574.898,307.55 Q574.898,301.974 579.134,297.984 Q583.369,293.994 589.602,293.994 Q595.834,293.994 600.07,297.696 Q604.306,301.397 604.468,307.79 L578.675,307.79 Q578.837,312.405 581.94,315.217 Q585.042,318.029 589.467,318.029 Q596.751,318.029 600.367,311.924 z M600.367,304.954 Q599.611,301.301 596.59,299.234 Q593.568,297.167 589.629,297.167 Q581.535,297.167 579.053,304.954 z" fill="#20497E"/>
      <path d="M610.781,284.813 L614.45,284.813 L614.45,320.192 L610.781,320.192 z" fill="#20497E"/>
    </g>
    <path d="M335.367,316.966 L354.974,326.738 L347.532,317.001 L342.619,317.033 z" fill="#FFFFFF"/>
    <path d="M300.495,317.699 L280.888,327.471 L288.329,317.734 L293.242,317.766 z" fill="#FFFFFF"/>
    <path d="M285.573,301.496 Q285.573,300.721 286.13,300.179 Q286.687,299.637 287.446,299.637 Q288.205,299.637 288.747,300.179 Q289.289,300.721 289.289,301.511 Q289.289,302.301 288.747,302.843 Q288.205,303.385 287.446,303.385 Q286.687,303.385 286.13,302.827 Q285.573,302.27 285.573,301.496 z" fill="#FFFFFF"/>
    <path d="M291.984,301.496 Q291.984,300.721 292.541,300.179 Q293.098,299.637 293.857,299.637 Q294.616,299.637 295.158,300.179 Q295.7,300.721 295.7,301.511 Q295.7,302.301 295.158,302.843 Q294.616,303.385 293.857,303.385 Q293.098,303.385 292.541,302.827 Q291.984,302.27 291.984,301.496 z" fill="#FFFFFF"/>
    <path d="M298.395,301.496 Q298.395,300.721 298.952,300.179 Q299.509,299.637 300.268,299.637 Q301.027,299.637 301.569,300.179 Q302.111,300.721 302.111,301.511 Q302.111,302.301 301.569,302.843 Q301.027,303.385 300.268,303.385 Q299.509,303.385 298.952,302.827 Q298.395,302.27 298.395,301.496 z" fill="#FFFFFF"/>
    <g>
      <path d="M342.475,290.126 C342.475,290.126 342.475,290.194 342.475,290.126 C342.407,290.33 341.792,290.33 341.929,290.672 C342.065,290.877 342.543,290.672 342.748,290.672 C343.089,290.603 344.25,290.399 344.318,290.945 C344.113,291.081 343.772,290.945 343.636,291.218 C344.045,291.491 344.455,291.559 344.933,291.628 C345.342,291.696 345.889,291.628 346.162,292.105 C346.162,292.447 345.547,292.174 345.342,292.174 C345.069,292.174 344.796,292.379 344.66,292.583 C345.069,293.198 345.615,292.925 346.025,292.993 C346.366,293.061 346.981,293.403 347.322,293.744 C347.527,294.017 347.937,294.768 347.527,294.836 C347.186,294.905 346.64,294.154 346.298,294.222 C346.435,294.495 346.913,294.836 346.64,295.178 C346.162,294.836 345.684,294.632 345.206,294.358 C344.728,294.085 344.455,293.471 343.977,293.266 C344.045,293.539 344.318,293.744 344.387,294.085 C344.591,294.563 344.182,294.358 343.909,294.154 C343.431,293.812 343.021,292.993 342.407,292.925 C342.407,293.13 342.68,293.334 342.68,293.539 C342.68,293.949 342.27,293.539 342.133,293.471 C341.86,293.266 341.656,292.993 341.382,292.788 C341.178,292.583 340.905,292.31 340.631,292.242 C340.29,292.515 340.836,292.652 340.836,292.856 C340.905,293.334 340.427,293.061 340.29,292.925 C339.88,292.583 339.471,292.174 338.925,291.969 C338.856,292.037 338.856,292.174 338.788,292.242 C339.129,292.447 339.061,292.652 338.652,292.583 C338.31,292.515 337.969,292.447 337.696,292.379 C337.149,292.242 335.784,291.832 336.398,291.013 C336.672,290.672 337.149,290.399 337.491,290.194 C337.696,290.126 337.901,289.989 338.105,289.989 C338.105,289.989 338.447,290.057 338.447,290.057 C338.447,290.057 338.378,290.126 338.31,290.126 C338.242,290.262 338.242,290.399 338.174,290.535 C338.72,290.603 339.129,290.194 339.607,289.921 C339.812,289.784 340.085,289.648 340.29,289.716 C340.631,289.921 340.017,289.989 339.88,290.126 C339.403,290.672 340.836,290.194 341.041,290.194 C341.382,290.126 342.407,289.852 342.475,290.126 z" fill="#247BA0"/>
      <path d="M341.587,294.017 C341.587,294.017 341.587,294.017 341.587,294.017 C341.382,294.222 340.905,293.881 340.905,294.222 C340.905,294.495 341.451,294.495 341.587,294.563 C341.86,294.632 343.089,294.973 342.884,295.383 C342.611,295.383 342.338,295.178 342.133,295.383 C342.407,295.792 342.816,295.997 343.158,296.202 C343.499,296.407 344.113,296.543 344.182,296.953 C344.045,297.226 343.499,296.816 343.294,296.816 C343.021,296.748 342.68,296.816 342.407,296.953 C342.543,297.567 343.226,297.499 343.636,297.704 C343.977,297.84 344.523,298.318 344.728,298.66 C344.933,298.933 345.069,299.616 344.591,299.616 C344.113,299.616 343.84,298.933 343.431,298.865 C343.499,299.138 343.84,299.547 343.499,299.752 C343.089,299.342 342.611,299.069 342.27,298.728 C341.929,298.387 341.86,297.772 341.519,297.431 C341.451,297.704 341.587,297.977 341.587,298.25 C341.587,298.728 341.246,298.387 341.041,298.182 C340.7,297.704 340.7,296.885 340.222,296.543 C340.085,296.748 340.29,297.021 340.222,297.226 C340.017,297.636 339.88,297.089 339.812,296.953 C339.676,296.612 339.607,296.338 339.471,295.997 C339.403,295.724 339.266,295.314 339.129,295.178 C338.72,295.246 339.129,295.656 339.061,295.861 C338.925,296.27 338.652,295.861 338.583,295.656 C338.378,295.109 338.31,294.495 337.969,294.017 C337.901,294.017 337.832,294.154 337.764,294.154 C337.901,294.563 337.764,294.7 337.491,294.358 C337.286,294.085 337.081,293.812 336.876,293.539 C336.535,293.061 335.852,291.559 336.672,291.286 C337.013,291.15 337.491,291.286 337.832,291.354 C337.969,291.423 338.174,291.423 338.378,291.559 C338.378,291.559 338.583,291.832 338.583,291.832 C338.583,291.832 338.515,291.832 338.447,291.832 C338.378,291.901 338.242,292.037 338.174,292.105 C338.515,292.515 338.993,292.447 339.471,292.447 C339.676,292.447 340.017,292.447 340.085,292.72 C340.222,293.061 339.812,292.788 339.607,292.856 C338.993,293.061 340.29,293.471 340.495,293.539 C340.631,293.471 341.656,293.744 341.587,294.017 z" fill="#247BA0"/>
      <path d="M334.555,297.158 C334.555,297.158 334.623,297.158 334.623,297.158 C334.828,297.158 334.965,296.543 335.238,296.816 C335.443,296.953 335.033,297.431 334.965,297.567 C334.828,297.84 334.214,298.933 334.692,299.069 C334.896,298.933 334.896,298.523 335.238,298.523 C335.306,299.001 335.238,299.411 335.101,299.889 C335.033,300.298 334.692,300.776 334.896,301.186 C335.17,301.254 335.306,300.64 335.374,300.435 C335.511,300.162 335.784,299.957 336.057,299.889 C336.398,300.435 335.852,300.913 335.716,301.322 C335.579,301.664 335.511,302.347 335.579,302.756 C335.647,303.029 335.989,303.644 336.33,303.302 C336.672,302.961 336.33,302.278 336.603,301.937 C336.74,302.142 336.808,302.688 337.218,302.551 C337.218,302.005 337.354,301.459 337.354,300.913 C337.354,300.367 336.945,299.957 336.945,299.411 C337.149,299.547 337.286,299.82 337.491,300.025 C337.832,300.298 337.832,299.889 337.764,299.616 C337.627,299.069 337.081,298.455 337.149,297.909 C337.354,297.977 337.491,298.318 337.627,298.387 C338.037,298.523 337.764,298.045 337.696,297.909 C337.559,297.567 337.423,297.294 337.286,297.021 C337.149,296.816 336.945,296.407 336.945,296.202 C337.286,295.929 337.286,296.543 337.491,296.612 C337.901,296.816 337.764,296.338 337.627,296.065 C337.354,295.519 337.013,295.041 336.876,294.495 C336.945,294.495 337.081,294.427 337.149,294.427 C337.286,294.836 337.559,294.836 337.491,294.358 C337.423,294.017 337.354,293.676 337.286,293.334 C337.149,292.788 336.603,291.218 335.784,291.628 C335.443,291.764 335.17,292.174 335.033,292.515 C335.033,292.652 334.965,292.788 334.965,292.993 C334.965,292.993 335.033,293.334 335.033,293.334 C335.033,293.334 335.101,293.266 335.101,293.266 C335.238,293.266 335.374,293.266 335.511,293.198 C335.579,293.744 335.17,294.017 334.828,294.427 C334.692,294.563 334.487,294.836 334.555,295.041 C334.692,295.383 334.828,294.905 335.033,294.768 C335.647,294.495 334.965,295.724 334.896,295.929 C334.76,296.065 334.35,297.021 334.555,297.158 z" fill="#247BA0"/>
      <path d="M331.892,294.563 C331.892,294.632 331.961,294.632 331.892,294.563 C332.097,294.632 332.575,294.154 332.643,294.427 C332.712,294.632 332.165,294.905 332.029,295.041 C331.756,295.246 330.663,296.202 330.937,296.475 C331.21,296.338 331.414,295.997 331.688,295.997 C331.483,296.475 331.21,296.885 330.868,297.294 C330.595,297.636 329.981,298.182 330.049,298.591 C330.254,298.66 330.663,298.045 330.868,297.84 C331.141,297.636 331.483,297.431 331.756,297.499 C331.756,298.114 331.073,298.387 330.663,298.865 C330.322,299.206 329.912,299.957 329.776,300.367 C329.639,300.708 329.639,301.322 330.186,300.981 C330.663,300.708 330.8,299.957 331.141,299.684 C331.141,299.957 330.868,300.435 331.346,300.503 C331.619,299.957 332.097,299.547 332.37,299.069 C332.643,298.591 332.507,298.045 332.848,297.567 C332.985,297.84 332.917,298.114 332.985,298.387 C333.121,298.796 333.394,298.455 333.463,298.182 C333.668,297.636 333.463,296.816 333.872,296.407 C334.009,296.612 333.941,296.953 334.077,297.089 C334.35,297.499 334.419,296.953 334.419,296.748 C334.487,296.407 334.487,296.065 334.555,295.724 C334.555,295.451 334.555,295.041 334.692,294.836 C335.101,294.905 334.828,295.314 334.896,295.519 C335.101,295.997 335.306,295.587 335.306,295.314 C335.374,294.7 335.306,294.085 335.511,293.539 C335.579,293.607 335.647,293.676 335.716,293.744 C335.647,294.154 335.852,294.358 335.989,294.017 C336.125,293.744 336.262,293.471 336.33,293.198 C336.535,292.72 336.808,291.15 336.057,290.672 C335.716,290.467 335.306,290.603 335.033,290.672 C334.896,290.74 334.692,290.808 334.555,290.945 C334.555,290.945 334.419,291.286 334.419,291.286 C334.419,291.286 334.487,291.286 334.555,291.286 C334.692,291.354 334.76,291.423 334.896,291.559 C334.623,292.037 334.145,291.969 333.668,292.105 C333.463,292.174 333.121,292.242 333.121,292.515 C333.053,292.856 333.463,292.515 333.668,292.515 C334.35,292.583 333.121,293.266 332.917,293.471 C332.712,293.676 331.756,294.427 331.892,294.563 z" fill="#247BA0"/>
      <path d="M349.871,311.265 C348.779,311.128 347.96,310.582 347.072,310.036 C345.98,309.49 345.092,309.49 343.932,309.421 C343.181,309.353 342.566,308.807 341.815,308.602 C341.542,308.534 341.542,308.739 341.405,308.944 C341.337,309.08 341.132,309.217 340.928,309.285 C340.518,309.49 340.04,309.626 339.562,309.626 C338.606,309.763 337.582,309.626 336.695,310.036 C336.285,310.241 335.807,310.446 335.329,310.514 C334.919,310.582 334.305,310.309 333.895,310.514 C333.417,310.787 333.554,311.265 333.281,311.675 C333.076,311.948 332.462,312.221 332.189,312.426 C333.691,313.313 335.875,312.972 337.65,312.972 C339.494,312.972 341.337,313.04 343.181,313.04 C346.048,313.04 348.984,313.177 351.851,313.04 C351.783,311.675 351.1,311.401 349.871,311.265 z" fill="#247BA0"/>
      <path d="M349.871,311.538 C348.779,311.401 347.96,310.924 347.072,310.514 C345.98,310.036 345.092,310.036 343.932,310.036 C343.181,309.968 342.566,309.49 341.815,309.353 C341.542,309.285 341.542,309.49 341.405,309.626 C341.337,309.695 341.132,309.831 340.928,309.899 C340.518,310.104 340.04,310.173 339.562,310.241 C338.606,310.309 337.582,310.241 336.695,310.582 C336.285,310.719 335.807,310.924 335.329,310.924 C334.919,310.924 334.305,310.719 333.895,310.924 C333.417,311.128 333.554,311.538 333.281,311.879 C333.076,312.152 332.462,312.221 332.189,312.357 C333.691,313.108 335.875,312.903 337.65,312.903 C339.494,312.903 341.337,312.972 343.181,312.972 C346.048,312.972 348.984,313.108 351.851,312.972 C351.783,311.948 351.1,311.675 349.871,311.538 z" fill="#247BA0"/>
      <path d="M349.871,312.221 C348.779,312.152 347.96,311.879 347.072,311.675 C345.98,311.401 345.092,311.401 343.932,311.401 C343.181,311.401 342.566,311.128 341.815,311.06 C341.542,311.06 341.542,311.128 341.405,311.197 C341.337,311.265 341.132,311.333 340.928,311.333 C340.518,311.47 340.04,311.47 339.562,311.47 C338.606,311.538 337.582,311.47 336.695,311.675 C336.285,311.743 335.807,311.879 335.329,311.879 C334.919,311.879 334.305,311.743 333.895,311.879 C333.417,312.016 333.554,312.221 333.281,312.426 C333.076,312.562 332.462,312.289 332.189,312.357 C333.281,313.177 335.875,312.972 337.65,312.972 C339.494,312.972 341.337,313.04 343.181,313.04 C346.048,313.04 348.984,313.108 351.851,313.04 C351.783,312.494 351.1,312.357 349.871,312.221 z" fill="#247BA0"/>
      <path d="M336.876,294.495 C336.876,294.495 342.598,300.697 341.346,311.967 C341.229,313.018 340.528,312.551 342.398,309.98 C346.041,304.97 338.369,292.468 337.286,293.334" fill="#247BA0"/>
    </g>
  </g>
</svg>
